# xmcd CD database file
#
# Track frame offsets:
#	150
#	14412
#	27415
#	39035
#	55435
#	66177
#	81635
#	95432
#	109352
#	121515
#	136375
#	150595
#	163515
#	175759
#
# Disc length: 2501 seconds
#
# Revision: 0
# Processed by: cddbd v1.4PL0 Copyright (c) Steve Scherf et al.
# Submitted via: CDex 1.51
#
DISCID=b209c30e
DTITLE=BELMONTE E AMARAÍ - LUAR DO SERTÃO
DYEAR=1900
DGENRE=Country
TTITLE0=SAUDADE DE MINHA TERRA
TTITLE1=MORRENDO DE AMOR
TTITLE2=MERCEDITAS
TTITLE3=A ANDORINHA
TTITLE4=POMBINHA MENSAGEIRA
TTITLE5=MORENA CHEIROSA
TTITLE6=A FRONHA
TTITLE7=DESDE QUE TE VI
TTITLE8=SAUDADE DE GOIÁS
TTITLE9=SEI QUE TE PERDI
TTITLE10=ETERNO ADEUS
TTITLE11=LÁGRIMAS DA ALMA
TTITLE12=QUERO ESQUERCER
TTITLE13=TERRA QUERIDA
EXTD=
EXTT0=
EXTT1=
EXTT2=
EXTT3=
EXTT4=
EXTT5=
EXTT6=
EXTT7=
EXTT8=
EXTT9=
EXTT10=
EXTT11=
EXTT12=
EXTT13=
PLAYORDER=
